<mxfile host="app.diagrams.net" modified="2023-04-23T00:51:53.999Z" agent="Mozilla/5.0 (Windows NT 10.0; Win64; x64) AppleWebKit/537.36 (KHTML, like Gecko) Chrome/111.0.0.0 Safari/537.36 OPR/97.0.0.0" etag="7CXo-JRsbpda9ENvJn73" version="21.2.1" type="device">
  <diagram name="PÃ¡gina-1" id="oULCYBTok0k0Yfr3I5wF">
    <mxGraphModel dx="2356" dy="2002" grid="1" gridSize="10" guides="1" tooltips="1" connect="1" arrows="1" fold="1" page="1" pageScale="1" pageWidth="827" pageHeight="1169" math="0" shadow="0">
      <root>
        <mxCell id="0" />
        <mxCell id="1" parent="0" />
        <mxCell id="sMYBGvfgtMrxw7-z7i5D-15" value="" style="edgeStyle=orthogonalEdgeStyle;rounded=0;orthogonalLoop=1;jettySize=auto;html=1;" edge="1" parent="1" source="sMYBGvfgtMrxw7-z7i5D-1" target="sMYBGvfgtMrxw7-z7i5D-14">
          <mxGeometry relative="1" as="geometry">
            <mxPoint x="-240" y="630" as="sourcePoint" />
            <Array as="points">
              <mxPoint x="-280" y="545" />
              <mxPoint x="-280" y="595" />
            </Array>
          </mxGeometry>
        </mxCell>
        <mxCell id="sMYBGvfgtMrxw7-z7i5D-26" style="edgeStyle=orthogonalEdgeStyle;rounded=0;orthogonalLoop=1;jettySize=auto;html=1;entryX=1;entryY=0.5;entryDx=0;entryDy=0;" edge="1" parent="1" source="sMYBGvfgtMrxw7-z7i5D-1" target="sMYBGvfgtMrxw7-z7i5D-23">
          <mxGeometry relative="1" as="geometry">
            <mxPoint x="-240" y="630" as="sourcePoint" />
            <Array as="points">
              <mxPoint x="-280" y="545" />
              <mxPoint x="-280" y="675" />
            </Array>
          </mxGeometry>
        </mxCell>
        <mxCell id="sMYBGvfgtMrxw7-z7i5D-27" style="edgeStyle=orthogonalEdgeStyle;rounded=0;orthogonalLoop=1;jettySize=auto;html=1;entryX=1;entryY=0.5;entryDx=0;entryDy=0;" edge="1" parent="1" source="sMYBGvfgtMrxw7-z7i5D-1" target="sMYBGvfgtMrxw7-z7i5D-22">
          <mxGeometry relative="1" as="geometry">
            <mxPoint x="-240" y="630" as="sourcePoint" />
            <Array as="points">
              <mxPoint x="-280" y="545" />
              <mxPoint x="-280" y="755" />
            </Array>
          </mxGeometry>
        </mxCell>
        <mxCell id="sMYBGvfgtMrxw7-z7i5D-35" style="edgeStyle=orthogonalEdgeStyle;rounded=0;orthogonalLoop=1;jettySize=auto;html=1;entryX=1;entryY=0.5;entryDx=0;entryDy=0;" edge="1" parent="1" source="sMYBGvfgtMrxw7-z7i5D-1" target="sMYBGvfgtMrxw7-z7i5D-32">
          <mxGeometry relative="1" as="geometry">
            <mxPoint x="-240" y="630" as="sourcePoint" />
            <Array as="points">
              <mxPoint x="-280" y="545" />
              <mxPoint x="-280" y="915" />
            </Array>
          </mxGeometry>
        </mxCell>
        <mxCell id="sMYBGvfgtMrxw7-z7i5D-36" style="edgeStyle=orthogonalEdgeStyle;rounded=0;orthogonalLoop=1;jettySize=auto;html=1;entryX=1;entryY=0.5;entryDx=0;entryDy=0;" edge="1" parent="1" source="sMYBGvfgtMrxw7-z7i5D-1" target="sMYBGvfgtMrxw7-z7i5D-31">
          <mxGeometry relative="1" as="geometry">
            <mxPoint x="-240" y="630" as="sourcePoint" />
            <Array as="points">
              <mxPoint x="-280" y="545" />
              <mxPoint x="-280" y="835" />
            </Array>
          </mxGeometry>
        </mxCell>
        <mxCell id="sMYBGvfgtMrxw7-z7i5D-45" style="edgeStyle=orthogonalEdgeStyle;rounded=0;orthogonalLoop=1;jettySize=auto;html=1;entryX=1;entryY=0.5;entryDx=0;entryDy=0;" edge="1" parent="1" source="sMYBGvfgtMrxw7-z7i5D-1" target="sMYBGvfgtMrxw7-z7i5D-41">
          <mxGeometry relative="1" as="geometry">
            <mxPoint x="-240" y="630" as="sourcePoint" />
            <Array as="points">
              <mxPoint x="-280" y="545" />
              <mxPoint x="-280" y="515" />
            </Array>
          </mxGeometry>
        </mxCell>
        <mxCell id="sMYBGvfgtMrxw7-z7i5D-46" style="edgeStyle=orthogonalEdgeStyle;rounded=0;orthogonalLoop=1;jettySize=auto;html=1;entryX=1;entryY=0.5;entryDx=0;entryDy=0;" edge="1" parent="1" source="sMYBGvfgtMrxw7-z7i5D-1" target="sMYBGvfgtMrxw7-z7i5D-40">
          <mxGeometry relative="1" as="geometry">
            <mxPoint x="-240" y="630" as="sourcePoint" />
            <Array as="points">
              <mxPoint x="-280" y="545" />
              <mxPoint x="-280" y="435" />
            </Array>
          </mxGeometry>
        </mxCell>
        <mxCell id="sMYBGvfgtMrxw7-z7i5D-47" style="edgeStyle=orthogonalEdgeStyle;rounded=0;orthogonalLoop=1;jettySize=auto;html=1;entryX=1;entryY=0.5;entryDx=0;entryDy=0;" edge="1" parent="1" source="sMYBGvfgtMrxw7-z7i5D-1" target="sMYBGvfgtMrxw7-z7i5D-38">
          <mxGeometry relative="1" as="geometry">
            <mxPoint x="-240" y="630" as="sourcePoint" />
            <Array as="points">
              <mxPoint x="-280" y="545" />
              <mxPoint x="-280" y="355" />
            </Array>
          </mxGeometry>
        </mxCell>
        <mxCell id="sMYBGvfgtMrxw7-z7i5D-48" style="edgeStyle=orthogonalEdgeStyle;rounded=0;orthogonalLoop=1;jettySize=auto;html=1;entryX=1;entryY=0.5;entryDx=0;entryDy=0;exitX=0;exitY=0.5;exitDx=0;exitDy=0;" edge="1" parent="1" source="sMYBGvfgtMrxw7-z7i5D-1" target="sMYBGvfgtMrxw7-z7i5D-39">
          <mxGeometry relative="1" as="geometry">
            <mxPoint x="-240" y="630" as="sourcePoint" />
            <Array as="points">
              <mxPoint x="-200" y="545" />
              <mxPoint x="-280" y="545" />
              <mxPoint x="-280" y="275" />
            </Array>
          </mxGeometry>
        </mxCell>
        <mxCell id="sMYBGvfgtMrxw7-z7i5D-49" style="edgeStyle=orthogonalEdgeStyle;rounded=0;orthogonalLoop=1;jettySize=auto;html=1;entryX=1;entryY=0.5;entryDx=0;entryDy=0;exitX=0;exitY=0.75;exitDx=0;exitDy=0;" edge="1" parent="1" source="sMYBGvfgtMrxw7-z7i5D-1" target="sMYBGvfgtMrxw7-z7i5D-37">
          <mxGeometry relative="1" as="geometry">
            <mxPoint x="-240" y="630" as="sourcePoint" />
            <Array as="points">
              <mxPoint x="-200" y="545" />
              <mxPoint x="-280" y="545" />
              <mxPoint x="-280" y="195" />
            </Array>
          </mxGeometry>
        </mxCell>
        <mxCell id="sMYBGvfgtMrxw7-z7i5D-52" style="edgeStyle=orthogonalEdgeStyle;rounded=0;orthogonalLoop=1;jettySize=auto;html=1;entryX=0;entryY=0.5;entryDx=0;entryDy=0;" edge="1" parent="1" source="sMYBGvfgtMrxw7-z7i5D-1" target="sMYBGvfgtMrxw7-z7i5D-50">
          <mxGeometry relative="1" as="geometry" />
        </mxCell>
        <mxCell id="sMYBGvfgtMrxw7-z7i5D-72" style="edgeStyle=orthogonalEdgeStyle;rounded=0;orthogonalLoop=1;jettySize=auto;html=1;exitX=0.5;exitY=1;exitDx=0;exitDy=0;entryX=0.5;entryY=0;entryDx=0;entryDy=0;" edge="1" parent="1" source="sMYBGvfgtMrxw7-z7i5D-1" target="sMYBGvfgtMrxw7-z7i5D-69">
          <mxGeometry relative="1" as="geometry" />
        </mxCell>
        <mxCell id="sMYBGvfgtMrxw7-z7i5D-1" value="&lt;font style=&quot;font-size: 24px;&quot;&gt;carreras&amp;nbsp;&lt;/font&gt;" style="rounded=0;whiteSpace=wrap;html=1;fontStyle=1" vertex="1" parent="1">
          <mxGeometry x="-200" y="505" width="130" height="70" as="geometry" />
        </mxCell>
        <mxCell id="sMYBGvfgtMrxw7-z7i5D-51" style="edgeStyle=orthogonalEdgeStyle;rounded=0;orthogonalLoop=1;jettySize=auto;html=1;entryX=1;entryY=0.5;entryDx=0;entryDy=0;" edge="1" parent="1" source="sMYBGvfgtMrxw7-z7i5D-2" target="sMYBGvfgtMrxw7-z7i5D-50">
          <mxGeometry relative="1" as="geometry" />
        </mxCell>
        <mxCell id="sMYBGvfgtMrxw7-z7i5D-62" style="edgeStyle=orthogonalEdgeStyle;rounded=0;orthogonalLoop=1;jettySize=auto;html=1;entryX=0.5;entryY=1;entryDx=0;entryDy=0;" edge="1" parent="1" source="sMYBGvfgtMrxw7-z7i5D-2" target="sMYBGvfgtMrxw7-z7i5D-60">
          <mxGeometry relative="1" as="geometry" />
        </mxCell>
        <mxCell id="sMYBGvfgtMrxw7-z7i5D-63" style="edgeStyle=orthogonalEdgeStyle;rounded=0;orthogonalLoop=1;jettySize=auto;html=1;entryX=0;entryY=0.5;entryDx=0;entryDy=0;" edge="1" parent="1" source="sMYBGvfgtMrxw7-z7i5D-2" target="sMYBGvfgtMrxw7-z7i5D-59">
          <mxGeometry relative="1" as="geometry" />
        </mxCell>
        <mxCell id="sMYBGvfgtMrxw7-z7i5D-65" style="edgeStyle=orthogonalEdgeStyle;rounded=0;orthogonalLoop=1;jettySize=auto;html=1;exitX=0.5;exitY=1;exitDx=0;exitDy=0;" edge="1" parent="1" source="sMYBGvfgtMrxw7-z7i5D-2" target="sMYBGvfgtMrxw7-z7i5D-61">
          <mxGeometry relative="1" as="geometry" />
        </mxCell>
        <mxCell id="sMYBGvfgtMrxw7-z7i5D-2" value="&lt;font style=&quot;font-size: 24px;&quot;&gt;tipos_carreras&lt;/font&gt;" style="rounded=0;whiteSpace=wrap;html=1;fontStyle=1" vertex="1" parent="1">
          <mxGeometry x="160" y="505" width="190" height="70" as="geometry" />
        </mxCell>
        <mxCell id="sMYBGvfgtMrxw7-z7i5D-66" style="edgeStyle=orthogonalEdgeStyle;rounded=0;orthogonalLoop=1;jettySize=auto;html=1;exitX=1;exitY=0.5;exitDx=0;exitDy=0;" edge="1" parent="1" source="sMYBGvfgtMrxw7-z7i5D-3" target="sMYBGvfgtMrxw7-z7i5D-58">
          <mxGeometry relative="1" as="geometry" />
        </mxCell>
        <mxCell id="sMYBGvfgtMrxw7-z7i5D-67" style="edgeStyle=orthogonalEdgeStyle;rounded=0;orthogonalLoop=1;jettySize=auto;html=1;exitX=0.5;exitY=1;exitDx=0;exitDy=0;entryX=0.5;entryY=0;entryDx=0;entryDy=0;" edge="1" parent="1" source="sMYBGvfgtMrxw7-z7i5D-3" target="sMYBGvfgtMrxw7-z7i5D-57">
          <mxGeometry relative="1" as="geometry" />
        </mxCell>
        <mxCell id="sMYBGvfgtMrxw7-z7i5D-70" value="" style="edgeStyle=orthogonalEdgeStyle;rounded=0;orthogonalLoop=1;jettySize=auto;html=1;" edge="1" parent="1" source="sMYBGvfgtMrxw7-z7i5D-3" target="sMYBGvfgtMrxw7-z7i5D-69">
          <mxGeometry relative="1" as="geometry" />
        </mxCell>
        <mxCell id="sMYBGvfgtMrxw7-z7i5D-3" value="&lt;font style=&quot;font-size: 24px;&quot;&gt;paises&lt;/font&gt;" style="rounded=0;whiteSpace=wrap;html=1;fontStyle=1" vertex="1" parent="1">
          <mxGeometry x="-190" y="815" width="110" height="70" as="geometry" />
        </mxCell>
        <mxCell id="sMYBGvfgtMrxw7-z7i5D-14" value="mejor_tiempo" style="ellipse;whiteSpace=wrap;html=1;rounded=0;fontSize=24;" vertex="1" parent="1">
          <mxGeometry x="-490" y="565" width="155" height="60" as="geometry" />
        </mxCell>
        <mxCell id="sMYBGvfgtMrxw7-z7i5D-22" value="lugar" style="ellipse;whiteSpace=wrap;html=1;rounded=0;fontSize=24;" vertex="1" parent="1">
          <mxGeometry x="-470" y="725" width="135" height="60" as="geometry" />
        </mxCell>
        <mxCell id="sMYBGvfgtMrxw7-z7i5D-23" value="altitud" style="ellipse;whiteSpace=wrap;html=1;rounded=0;fontSize=24;" vertex="1" parent="1">
          <mxGeometry x="-470" y="645" width="135" height="60" as="geometry" />
        </mxCell>
        <mxCell id="sMYBGvfgtMrxw7-z7i5D-28" value="" style="ellipse;whiteSpace=wrap;html=1;rounded=0;fontSize=24;" vertex="1" parent="1">
          <mxGeometry x="-470" y="805" width="135" height="60" as="geometry" />
        </mxCell>
        <mxCell id="sMYBGvfgtMrxw7-z7i5D-30" value="" style="ellipse;whiteSpace=wrap;html=1;rounded=0;fontSize=24;" vertex="1" parent="1">
          <mxGeometry x="-470" y="885" width="135" height="60" as="geometry" />
        </mxCell>
        <mxCell id="sMYBGvfgtMrxw7-z7i5D-31" value="pais" style="ellipse;whiteSpace=wrap;html=1;rounded=0;fontSize=24;fontStyle=6" vertex="1" parent="1">
          <mxGeometry x="-470" y="805" width="135" height="60" as="geometry" />
        </mxCell>
        <mxCell id="sMYBGvfgtMrxw7-z7i5D-32" value="foto" style="ellipse;whiteSpace=wrap;html=1;rounded=0;fontSize=24;" vertex="1" parent="1">
          <mxGeometry x="-470" y="885" width="135" height="60" as="geometry" />
        </mxCell>
        <mxCell id="sMYBGvfgtMrxw7-z7i5D-37" value="carrera_id" style="ellipse;whiteSpace=wrap;html=1;rounded=0;fontSize=24;fontStyle=4" vertex="1" parent="1">
          <mxGeometry x="-470" y="165" width="135" height="60" as="geometry" />
        </mxCell>
        <mxCell id="sMYBGvfgtMrxw7-z7i5D-38" value="tipo_carrera" style="ellipse;whiteSpace=wrap;html=1;rounded=0;fontSize=24;fontStyle=6" vertex="1" parent="1">
          <mxGeometry x="-480" y="325" width="145" height="60" as="geometry" />
        </mxCell>
        <mxCell id="sMYBGvfgtMrxw7-z7i5D-39" value="nombre" style="ellipse;whiteSpace=wrap;html=1;rounded=0;fontSize=24;" vertex="1" parent="1">
          <mxGeometry x="-470" y="245" width="135" height="60" as="geometry" />
        </mxCell>
        <mxCell id="sMYBGvfgtMrxw7-z7i5D-40" value="fecha" style="ellipse;whiteSpace=wrap;html=1;rounded=0;fontSize=24;" vertex="1" parent="1">
          <mxGeometry x="-470" y="405" width="135" height="60" as="geometry" />
        </mxCell>
        <mxCell id="sMYBGvfgtMrxw7-z7i5D-41" value="tiempo" style="ellipse;whiteSpace=wrap;html=1;rounded=0;fontSize=24;" vertex="1" parent="1">
          <mxGeometry x="-470" y="485" width="135" height="60" as="geometry" />
        </mxCell>
        <mxCell id="sMYBGvfgtMrxw7-z7i5D-50" value="&lt;font style=&quot;font-size: 20px;&quot;&gt;pertenece&lt;/font&gt;" style="rhombus;whiteSpace=wrap;html=1;fontStyle=1" vertex="1" parent="1">
          <mxGeometry x="-20" y="475" width="130" height="130" as="geometry" />
        </mxCell>
        <mxCell id="sMYBGvfgtMrxw7-z7i5D-53" value="&lt;font style=&quot;font-size: 20px;&quot;&gt;1&lt;/font&gt;" style="text;html=1;align=center;verticalAlign=middle;resizable=0;points=[];autosize=1;strokeColor=none;fillColor=none;fontSize=13;" vertex="1" parent="1">
          <mxGeometry x="110" y="495" width="30" height="40" as="geometry" />
        </mxCell>
        <mxCell id="sMYBGvfgtMrxw7-z7i5D-54" value="&lt;font style=&quot;font-size: 20px;&quot;&gt;1&lt;/font&gt;" style="text;html=1;align=center;verticalAlign=middle;resizable=0;points=[];autosize=1;strokeColor=none;fillColor=none;fontSize=13;" vertex="1" parent="1">
          <mxGeometry x="-60" y="495" width="30" height="40" as="geometry" />
        </mxCell>
        <mxCell id="sMYBGvfgtMrxw7-z7i5D-57" value="nombre" style="ellipse;whiteSpace=wrap;html=1;rounded=0;fontSize=24;" vertex="1" parent="1">
          <mxGeometry x="-202.5" y="945" width="135" height="60" as="geometry" />
        </mxCell>
        <mxCell id="sMYBGvfgtMrxw7-z7i5D-58" value="pais_id" style="ellipse;whiteSpace=wrap;html=1;rounded=0;fontSize=24;fontStyle=4" vertex="1" parent="1">
          <mxGeometry x="-6" y="820" width="135" height="60" as="geometry" />
        </mxCell>
        <mxCell id="sMYBGvfgtMrxw7-z7i5D-59" value="descripcion" style="ellipse;whiteSpace=wrap;html=1;rounded=0;fontSize=24;" vertex="1" parent="1">
          <mxGeometry x="410" y="510" width="155" height="60" as="geometry" />
        </mxCell>
        <mxCell id="sMYBGvfgtMrxw7-z7i5D-60" value="tipo_carrera_id" style="ellipse;whiteSpace=wrap;html=1;rounded=0;fontSize=24;fontStyle=4" vertex="1" parent="1">
          <mxGeometry x="158.75" y="385" width="191.25" height="57.78" as="geometry" />
        </mxCell>
        <mxCell id="sMYBGvfgtMrxw7-z7i5D-61" value="distancia" style="ellipse;whiteSpace=wrap;html=1;rounded=0;fontSize=24;" vertex="1" parent="1">
          <mxGeometry x="187.5" y="635" width="135" height="60" as="geometry" />
        </mxCell>
        <mxCell id="sMYBGvfgtMrxw7-z7i5D-69" value="se corre" style="rhombus;whiteSpace=wrap;html=1;rounded=0;fontStyle=1;fontSize=20;" vertex="1" parent="1">
          <mxGeometry x="-202.5" y="626" width="135" height="135" as="geometry" />
        </mxCell>
        <mxCell id="sMYBGvfgtMrxw7-z7i5D-74" value="&lt;font style=&quot;font-size: 20px;&quot;&gt;1&lt;/font&gt;" style="text;html=1;align=center;verticalAlign=middle;resizable=0;points=[];autosize=1;strokeColor=none;fillColor=none;fontSize=13;" vertex="1" parent="1">
          <mxGeometry x="-127" y="585" width="30" height="40" as="geometry" />
        </mxCell>
        <mxCell id="sMYBGvfgtMrxw7-z7i5D-75" value="&lt;font style=&quot;font-size: 20px;&quot;&gt;1&lt;/font&gt;" style="text;html=1;align=center;verticalAlign=middle;resizable=0;points=[];autosize=1;strokeColor=none;fillColor=none;fontSize=13;" vertex="1" parent="1">
          <mxGeometry x="-127" y="770" width="30" height="40" as="geometry" />
        </mxCell>
      </root>
    </mxGraphModel>
  </diagram>
</mxfile>
